<svg width="22" height="24" viewBox="0 0 22 24" fill="none" xmlns="http://www.w3.org/2000/svg">
<path d="M21.0212 14.0346C20.7787 13.3352 20.583 12.622 20.4353 11.8991C20.2854 10.8025 20.2509 9.69446 20.3324 8.59138C20.4811 8.64277 20.6378 8.67017 20.7959 8.67247C20.9374 8.67408 21.0775 8.64641 21.2066 8.59138C21.3501 8.53072 21.4722 8.43189 21.558 8.30679C21.6439 8.1817 21.6898 8.03567 21.6904 7.88631C21.7692 6.21996 21.3047 4.57116 20.3602 3.16548C19.4158 1.75981 18.0376 0.665922 16.4143 0.0334912C16.2576 -0.0142501 16.0876 -0.00196119 15.9403 0.0677411C15.793 0.137443 15.6802 0.259052 15.6258 0.406673C15.5715 0.554294 15.5798 0.716264 15.6492 0.858095C15.7185 0.999925 15.8434 1.11041 15.9971 1.16602C16.9972 1.55897 17.8911 2.16151 18.612 2.92872C17.9966 5.45467 18.5592 6.90096 19.133 7.66685C18.9829 9.14132 19.0025 10.627 19.1914 12.0974C19.3483 12.8707 19.5566 13.6337 19.8152 14.3818C20.4453 15.8985 20.6605 17.5424 20.4409 19.1596C20.3117 19.6263 20.0078 20.0321 19.5862 20.3008C19.1647 20.5695 18.6545 20.6827 18.1514 20.6191C17.8958 20.5967 17.6476 20.5256 17.4216 20.4101C17.1956 20.2945 16.9963 20.1369 16.8357 19.9466C16.6751 19.7563 16.5564 19.5372 16.4867 19.3024C16.417 19.0675 16.3977 18.8218 16.43 18.5797V11.5395C16.4352 11.2758 16.3798 11.0142 16.2678 10.7729C16.1557 10.5317 15.9896 10.3165 15.7812 10.1426C15.5465 9.95883 15.2733 9.82492 14.9798 9.74983C14.6862 9.67474 14.3792 9.6602 14.0793 9.70717C13.969 9.72215 13.868 9.74066 13.7725 9.76005V0.600198C13.7725 0.441625 13.7065 0.289494 13.5889 0.177036C13.4713 0.0645773 13.3117 0.000931416 13.1449 0L1.78436 0C1.61694 0 1.45638 0.063235 1.338 0.175794C1.21962 0.288353 1.15311 0.441016 1.15311 0.600198V22.7996H0.631246C0.463829 22.7996 0.303269 22.8628 0.184888 22.9754C0.0665059 23.088 0 23.2406 0 23.3998C0 23.559 0.0665059 23.7116 0.184888 23.8242C0.303269 23.9368 0.463829 24 0.631246 24H14.2981C14.4655 24 14.626 23.9368 14.7444 23.8242C14.8628 23.7116 14.9293 23.559 14.9293 23.3998C14.9293 23.2406 14.8628 23.088 14.7444 22.9754C14.626 22.8628 14.4655 22.7996 14.2981 22.7996H13.7743V11.0045C13.9314 10.952 14.0939 10.9156 14.2591 10.8961C14.3802 10.8734 14.5049 10.8754 14.6251 10.902C14.7453 10.9285 14.8581 10.9791 14.9562 11.0503C15.0273 11.1121 15.0831 11.1881 15.1195 11.2728C15.1559 11.3576 15.172 11.449 15.1666 11.5404V18.5806C15.1309 18.9719 15.1766 19.366 15.3011 19.7405C15.4256 20.115 15.6265 20.4625 15.8923 20.7631C16.1582 21.0637 16.4837 21.3116 16.8503 21.4926C17.2169 21.6736 17.6174 21.7841 18.029 21.8178C18.1378 21.8272 18.2478 21.8322 18.359 21.8328C19.1259 21.8604 19.8786 21.6309 20.4856 21.1843C21.0925 20.7377 21.515 20.1025 21.6793 19.3897C21.9494 17.5805 21.7227 15.7358 21.0212 14.0346ZM19.64 4.3521C20.1168 5.25709 20.3833 6.249 20.4214 7.26055C20.3289 7.17915 20.2457 7.08876 20.173 6.99086C19.6637 6.20221 19.4742 5.26405 19.64 4.3521ZM2.41653 22.7996V1.19952H12.5137V22.7996H2.41653Z" fill="black"/>
<path d="M10.6209 2.37646H4.31032C4.14291 2.37646 3.98235 2.4397 3.86396 2.55226C3.74558 2.66482 3.67908 2.81748 3.67908 2.97666V8.97688C3.67908 9.13607 3.74558 9.28873 3.86396 9.40129C3.98235 9.51385 4.14291 9.57708 4.31032 9.57708H10.6209C10.7883 9.57708 10.9489 9.51385 11.0673 9.40129C11.1857 9.28873 11.2522 9.13607 11.2522 8.97688V2.97666C11.2522 2.81748 11.1857 2.66482 11.0673 2.55226C10.9489 2.4397 10.7883 2.37646 10.6209 2.37646ZM9.98969 8.37669H4.94157V3.57686H9.98969V8.37669Z" fill="black"/>
</svg>
