<svg width="30" height="24" viewBox="0 0 30 24" fill="none" xmlns="http://www.w3.org/2000/svg">
<path d="M23.9847 23.7952L22.2819 22.1745C22.1668 22.0401 22.1084 21.8698 22.1182 21.6967C22.128 21.5236 22.2052 21.3601 22.3349 21.2383C22.4646 21.1164 22.6373 21.0449 22.8195 21.0376C23.0016 21.0303 23.1801 21.0878 23.3201 21.1989L24.4926 22.3137C26.4971 20.1941 27.6752 17.4842 27.8295 14.6375H26.1749C26.0765 14.6408 25.9784 14.6253 25.8865 14.5917C25.7945 14.5582 25.7106 14.5075 25.6397 14.4424C25.5689 14.3774 25.5125 14.2995 25.474 14.2133C25.4355 14.1271 25.4157 14.0344 25.4157 13.9408C25.4157 13.8472 25.4355 13.7545 25.474 13.6683C25.5125 13.5821 25.5689 13.5042 25.6397 13.4392C25.7106 13.3742 25.7945 13.3234 25.8865 13.2899C25.9784 13.2564 26.0765 13.2408 26.1749 13.2441H27.8313C27.6688 10.4039 26.4916 7.70148 24.4945 5.58375L23.3192 6.69773C23.2512 6.76362 23.1703 6.81606 23.0809 6.85201C22.9915 6.88796 22.8956 6.90671 22.7986 6.90717C22.7015 6.90764 22.6054 6.88981 22.5156 6.85472C22.4259 6.81963 22.3444 6.76798 22.2757 6.70274C22.2071 6.63751 22.1528 6.55999 22.1159 6.47466C22.079 6.38934 22.0603 6.29791 22.0607 6.20566C22.0612 6.1134 22.081 6.02215 22.1188 5.93719C22.1566 5.85223 22.2117 5.77523 22.281 5.71066L23.4498 4.59668C21.2229 2.6905 18.3776 1.56543 15.3858 1.40808V2.98035C15.3858 3.16524 15.3085 3.34255 15.171 3.47329C15.0335 3.60402 14.847 3.67747 14.6526 3.67747C14.4581 3.67747 14.2717 3.60402 14.1342 3.47329C13.9967 3.34255 13.9194 3.16524 13.9194 2.98035V1.40985C10.9287 1.56506 8.08346 2.68727 5.85534 4.59051L7.03715 5.70361C7.15264 5.83807 7.21191 6.00832 7.20358 6.18174C7.19526 6.35517 7.11994 6.51957 6.99204 6.64347C6.86414 6.76737 6.69267 6.84205 6.51046 6.8532C6.32825 6.86435 6.14812 6.81119 6.00457 6.7039L4.83204 5.58904C2.83319 7.70404 1.65312 10.4042 1.48684 13.2432H3.14044C3.23885 13.2399 3.33696 13.2555 3.42892 13.289C3.52087 13.3225 3.60478 13.3733 3.67564 13.4383C3.7465 13.5033 3.80286 13.5813 3.84135 13.6674C3.87985 13.7536 3.89968 13.8463 3.89968 13.9399C3.89968 14.0336 3.87985 14.1262 3.84135 14.2124C3.80286 14.2986 3.7465 14.3765 3.67564 14.4416C3.60478 14.5066 3.52087 14.5574 3.42892 14.5909C3.33696 14.6244 3.23885 14.6399 3.14044 14.6366H1.48777C1.64216 17.4833 2.82015 20.1932 4.82462 22.3129L5.99623 21.1989C6.1357 21.0844 6.3154 21.024 6.49956 21.0298C6.68372 21.0356 6.85883 21.1071 6.99005 21.2301C7.12127 21.3531 7.19898 21.5185 7.20771 21.6935C7.21643 21.8685 7.15554 22.0402 7.03715 22.1745L5.30754 23.7714C5.23944 23.8363 5.15853 23.8878 5.06946 23.923C4.98039 23.9581 4.88491 23.9762 4.78847 23.9762C4.69204 23.9762 4.59656 23.9581 4.50749 23.923C4.41842 23.8878 4.33751 23.8363 4.26941 23.7714C1.54081 21.167 0.00609559 17.6423 1.81186e-05 13.9661C-0.00605935 10.29 1.51699 6.76069 4.23697 4.14809C4.26999 4.10041 4.31288 4.05963 4.36303 4.02823C7.10252 1.44771 10.8028 0 14.6591 0C18.5153 0 22.2156 1.44771 24.9551 4.02823C25.0053 4.05963 25.0482 4.10041 25.0812 4.14809C27.8057 6.7646 29.3294 10.3006 29.319 13.9826C29.3086 17.6645 27.7649 21.1927 25.0256 23.7952C24.9575 23.8601 24.8766 23.9116 24.7875 23.9468C24.6984 23.9819 24.603 24 24.5065 24C24.4101 24 24.3146 23.9819 24.2255 23.9468C24.1365 23.9116 24.0556 23.8601 23.9874 23.7952H23.9847ZM12.3817 16.022C11.8965 15.5423 11.5924 14.923 11.5171 14.2613C11.4418 13.5996 11.5995 12.9328 11.9655 12.3655L8.48497 9.05701C8.3496 8.92566 8.2742 8.74883 8.27518 8.56493C8.27616 8.38103 8.35342 8.20493 8.49019 8.0749C8.62695 7.94486 8.81216 7.8714 9.00557 7.87047C9.19898 7.86954 9.38496 7.94122 9.5231 8.06994L13.0027 11.3784C13.5108 11.0807 14.0971 10.9257 14.6939 10.9315C15.2907 10.9372 15.8735 11.1034 16.3752 11.4108C16.8768 11.7182 17.2768 12.1543 17.5288 12.6687C17.7808 13.1831 17.8745 13.7548 17.7993 14.3177C17.724 14.8806 17.4827 15.4118 17.1033 15.8498C16.724 16.2879 16.222 16.6149 15.6554 16.7932C15.0888 16.9714 14.4807 16.9936 13.9014 16.8572C13.3221 16.7207 12.7952 16.4312 12.3817 16.022ZM13.4615 12.7929C13.2223 13.0185 13.0591 13.3066 12.9924 13.6206C12.9258 13.9346 12.9587 14.2603 13.0872 14.5565C13.2156 14.8526 13.4336 15.1058 13.7137 15.2839C13.9937 15.462 14.3231 15.5569 14.66 15.5567C14.9392 15.5566 15.214 15.4911 15.4602 15.366C15.7064 15.2408 15.9164 15.06 16.0716 14.8393C16.2268 14.6187 16.3224 14.3651 16.35 14.101C16.3776 13.8369 16.3363 13.5703 16.2298 13.325C16.1233 13.0796 15.9549 12.863 15.7394 12.6943C15.5239 12.5255 15.268 12.4099 14.9943 12.3575C14.7207 12.3052 14.4376 12.3178 14.1703 12.3942C13.9029 12.4706 13.6595 12.6084 13.4615 12.7955V12.7929Z" fill="black"/>
</svg>
