<svg width="18" height="24" viewBox="0 0 18 24" fill="none" xmlns="http://www.w3.org/2000/svg">
<path d="M4.69755 23.9991C4.56631 23.9994 4.43683 23.9705 4.31943 23.9147C4.20203 23.859 4.09996 23.7779 4.02138 23.6779C3.9428 23.578 3.88987 23.462 3.86682 23.3391C3.84378 23.2163 3.85125 23.09 3.88864 22.9704L7.08933 12.6424L0.86628 12.7927C0.7258 12.7969 0.586506 12.767 0.461543 12.7059C0.33658 12.6447 0.230067 12.5543 0.152054 12.4431C0.071959 12.3343 0.0216181 12.2081 0.005571 12.0762C-0.0104761 11.9442 0.00827478 11.8105 0.0601323 11.6871L4.82807 0.499928C4.89109 0.352058 4.99914 0.225463 5.13835 0.136388C5.27757 0.0473121 5.4416 -0.000181923 5.6094 5.23676e-07H12.4116C12.5598 -0.000160119 12.7055 0.036896 12.8338 0.107422C12.9622 0.177947 13.0687 0.279443 13.1425 0.401648C13.2164 0.523853 13.255 0.662436 13.2545 0.803387C13.254 0.944338 13.2143 1.08266 13.1396 1.20437L9.61899 6.97276L16.2198 6.90896C16.3696 6.91119 16.5162 6.95049 16.6452 7.02298C16.7741 7.09547 16.881 7.19865 16.9552 7.32236C17.0272 7.45275 17.06 7.59949 17.0499 7.74644C17.0399 7.89339 16.9874 8.03486 16.8982 8.15528L5.38511 23.66C5.30752 23.7649 5.20457 23.8505 5.08491 23.9097C4.96526 23.9689 4.83241 23.9998 4.69755 24V23.9991ZM8.22547 11.0403C8.35671 11.0401 8.48619 11.069 8.60359 11.1248C8.72099 11.1805 8.82305 11.2616 8.90164 11.3615C8.98022 11.4615 9.03315 11.5775 9.05619 11.7003C9.07924 11.8232 9.07177 11.9494 9.03438 12.069L6.94226 18.7988L14.6029 8.52061L8.16848 8.58441C8.02024 8.58457 7.87458 8.54752 7.74623 8.47699C7.61787 8.40647 7.51138 8.30497 7.43751 8.18277C7.36364 8.06056 7.32501 7.92198 7.32553 7.78103C7.32605 7.64008 7.3657 7.50176 7.44047 7.38004L10.9684 1.61165H6.18023L2.10997 11.1723L8.20157 11.0412L8.22547 11.0403Z" fill="black"/>
</svg>
