<svg width="39" height="24" viewBox="0 0 39 24" fill="none" xmlns="http://www.w3.org/2000/svg">
<path d="M36.5319 7.99683C36.4537 7.84505 36.3322 7.71718 36.1814 7.62773C36.0306 7.53829 35.8564 7.49086 35.6786 7.49084H32.2776C32.0256 7.49084 31.7839 7.58604 31.6056 7.75549C31.4274 7.92493 31.3273 8.15475 31.3273 8.39439V10.308H29.9809V8.38678C29.9809 8.14797 29.8815 7.91886 29.7044 7.74955C29.5272 7.58024 29.2868 7.48449 29.0356 7.48324L26.942 7.47373L25.6416 4.65943C25.5672 4.49926 25.4454 4.36311 25.2911 4.26754C25.1367 4.17197 24.9565 4.12109 24.7724 4.12111H19.6709V1.80709H22.3516C22.4764 1.80709 22.6 1.78372 22.7153 1.73831C22.8306 1.6929 22.9354 1.62635 23.0236 1.54244C23.1118 1.45854 23.1818 1.35894 23.2296 1.24931C23.2774 1.13969 23.3019 1.0222 23.3019 0.903544C23.3019 0.784889 23.2774 0.667395 23.2296 0.557772C23.1818 0.448149 23.1118 0.348543 23.0236 0.264641C22.9354 0.180739 22.8306 0.114186 22.7153 0.0687788C22.6 0.0233716 22.4764 -7.07238e-09 22.3516 0H11.0753C10.9505 -7.07238e-09 10.8269 0.0233716 10.7116 0.0687788C10.5963 0.114186 10.4916 0.180739 10.4033 0.264641C10.3151 0.348543 10.2451 0.448149 10.1973 0.557772C10.1496 0.667395 10.125 0.784889 10.125 0.903544C10.125 1.0222 10.1496 1.13969 10.1973 1.24931C10.2451 1.35894 10.3151 1.45854 10.4033 1.54244C10.4916 1.62635 10.5963 1.6929 10.7116 1.73831C10.8269 1.78372 10.9505 1.80709 11.0753 1.80709H14.3523V4.12016H9.88294C9.71462 4.1202 9.54933 4.16276 9.40398 4.24348C9.25863 4.32419 9.13844 4.44016 9.05569 4.57954L8.10241 6.18974H7.44922C6.62155 6.19075 5.82809 6.50381 5.24285 7.06027C4.6576 7.61673 4.32835 8.37117 4.32729 9.15812V11.1278H2.13363C2.05492 11.1287 1.97662 11.139 1.90057 11.1583V6.30768C1.90057 6.06805 1.80045 5.83823 1.62223 5.66878C1.44402 5.49933 1.20231 5.40414 0.950283 5.40414C0.698252 5.40414 0.456544 5.49933 0.278331 5.66878C0.100119 5.83823 3.75555e-09 6.06805 0 6.30768L0 17.4355C3.75555e-09 17.6752 0.100119 17.905 0.278331 18.0744C0.456544 18.2439 0.698252 18.3391 0.950283 18.3391C1.20231 18.3391 1.44402 18.2439 1.62223 18.0744C1.80045 17.905 1.90057 17.6752 1.90057 17.4355V12.9045C1.97662 12.9238 2.05491 12.9341 2.13363 12.9349H4.32629V17.3176C4.32708 18.115 4.66057 18.8795 5.25357 19.4433C5.84656 20.0071 6.65061 20.3242 7.48923 20.325H10.5371L14.1242 23.7356C14.2125 23.8195 14.3173 23.8861 14.4326 23.9314C14.548 23.9768 14.6716 24.0001 14.7964 24H29.0306C29.2827 24 29.5244 23.9048 29.7026 23.7354C29.8808 23.5659 29.9809 23.3361 29.9809 23.0965V20.4904H31.3323V22.1958C31.3322 22.3143 31.3566 22.4317 31.4042 22.5412C31.4518 22.6508 31.5216 22.7504 31.6097 22.8343C31.6977 22.9182 31.8023 22.9848 31.9174 23.0302C32.0325 23.0757 32.1559 23.0992 32.2806 23.0993L35.7496 23.105C35.9266 23.105 36.1001 23.058 36.2505 22.9692C36.4009 22.8805 36.5223 22.7536 36.6009 22.6028C37.6179 20.25 38.0953 17.7179 38.0013 15.1757C38.0478 12.7111 37.5471 10.265 36.5319 7.99683ZM16.2518 1.8147H17.7663V4.12776H16.2518V1.8147ZM35.1104 21.2951H33.2299V19.5831C33.23 19.4644 33.2055 19.3469 33.1578 19.2372C33.1101 19.1275 33.0401 19.0278 32.9518 18.9439C32.8636 18.86 32.7588 18.7934 32.6434 18.7481C32.5281 18.7027 32.4044 18.6794 32.2796 18.6796L29.0276 18.6853C28.903 18.6854 28.7796 18.7089 28.6644 18.7543C28.5493 18.7998 28.4447 18.8664 28.3567 18.9503C28.2686 19.0342 28.1988 19.1338 28.1512 19.2433C28.1036 19.3529 28.0792 19.4703 28.0794 19.5888V22.1891H15.1895L11.6035 18.7785C11.5152 18.6945 11.4104 18.628 11.295 18.5826C11.1797 18.5372 11.0561 18.514 10.9313 18.5141H7.48923C7.15511 18.5138 6.83467 18.3878 6.59794 18.1636C6.36121 17.9394 6.22744 17.6353 6.22585 17.3176V9.15907C6.22612 8.8509 6.35499 8.55543 6.58417 8.33752C6.81335 8.11961 7.12411 7.99708 7.44822 7.99683H8.65457C8.8229 7.99678 8.98818 7.95422 9.13353 7.87351C9.27888 7.79279 9.39908 7.67682 9.48182 7.53745L10.4371 5.92724H24.1482L25.4486 8.73773C25.5224 8.89742 25.6433 9.03333 25.7967 9.12904C25.9501 9.22474 26.1294 9.27614 26.3128 9.27701L28.0774 9.28462V11.2068C28.0774 11.4464 28.1775 11.6762 28.3557 11.8457C28.5339 12.0151 28.7756 12.1103 29.0276 12.1103H32.2796C32.5316 12.1103 32.7733 12.0151 32.9515 11.8457C33.1298 11.6762 33.2299 11.4464 33.2299 11.2068V9.29413H35.0444C35.7579 11.1795 36.1142 13.1702 36.0967 15.1738C36.1364 17.2527 35.8029 19.3228 35.1104 21.2951Z" fill="black"/>
</svg>
